<svg width="24" height="24" viewBox="0 0 24 24" fill="none" xmlns="http://www.w3.org/2000/svg">
<mask id="path-1-outside-1_9_16" maskUnits="userSpaceOnUse" x="2" y="3.14285" width="20" height="19" fill="black">
<rect fill="white" x="2" y="3.14285" width="20" height="19"/>
<path fill-rule="evenodd" clip-rule="evenodd" d="M11.4286 5.14285H6.28571C5.67951 5.14285 5.09812 5.38367 4.66947 5.81232C4.24082 6.24098 4 6.82236 4 7.42857V17.7143C4 18.3205 4.24082 18.9019 4.66947 19.3305C5.09812 19.7592 5.67951 20 6.28571 20H17.7143C18.3205 20 18.9019 19.7592 19.3305 19.3305C19.7592 18.9019 20 18.3205 20 17.7143V12.5714"/>
</mask>
<path d="M11.4286 7.14285C12.5331 7.14285 13.4286 6.24742 13.4286 5.14285C13.4286 4.03828 12.5331 3.14285 11.4286 3.14285V7.14285ZM6.28571 5.14285L6.28571 3.14285L6.28571 5.14285ZM4 7.42857H2H4ZM4 17.7143H2H4ZM22 12.5714C22 11.4669 21.1046 10.5714 20 10.5714C18.8954 10.5714 18 11.4669 18 12.5714H22ZM11.4286 3.14285H6.28571V7.14285H11.4286V3.14285ZM6.28571 3.14285C5.14907 3.14285 4.05898 3.59438 3.25526 4.39811L6.08368 7.22654C6.13727 7.17295 6.20994 7.14285 6.28571 7.14285L6.28571 3.14285ZM3.25526 4.39811C2.45153 5.20184 2 6.29193 2 7.42857L6 7.42857C6 7.35279 6.0301 7.28012 6.08368 7.22654L3.25526 4.39811ZM2 7.42857V17.7143H6V7.42857H2ZM2 17.7143C2 18.8509 2.45153 19.941 3.25526 20.7447L6.08368 17.9163C6.0301 17.8627 6 17.7901 6 17.7143H2ZM3.25526 20.7447C4.05898 21.5485 5.14907 22 6.28571 22V18C6.20994 18 6.13727 17.9699 6.08368 17.9163L3.25526 20.7447ZM6.28571 22H17.7143V18H6.28571V22ZM17.7143 22C18.8509 22 19.941 21.5485 20.7447 20.7447L17.9163 17.9163C17.8627 17.9699 17.7901 18 17.7143 18V22ZM20.7447 20.7447C21.5485 19.941 22 18.8509 22 17.7143H18C18 17.7901 17.9699 17.8627 17.9163 17.9163L20.7447 20.7447ZM22 17.7143V12.5714H18V17.7143H22Z" fill="white" mask="url(#path-1-outside-1_9_16)"/>
<mask id="path-3-outside-2_9_16" maskUnits="userSpaceOnUse" x="6.57143" y="1.4718" width="16" height="16" fill="black">
<rect fill="white" x="6.57143" y="1.4718" width="16" height="16"/>
<path fill-rule="evenodd" clip-rule="evenodd" d="M20 3.96228C20.3052 4.27704 20.4743 4.69927 20.4707 5.1377C20.467 5.57612 20.291 5.99549 19.9806 6.30514L12 14.2857L8.57143 15.4286L9.71428 12L17.6994 3.94743C17.9803 3.66478 18.3559 3.4962 18.7537 3.47425C19.1516 3.4523 19.5435 3.57853 19.8537 3.82857L20 3.96228ZM17.7143 6.28571L18.8034 7.42857Z"/>
</mask>
<path d="M20 3.96228L21.4358 2.56998C21.4078 2.54115 21.379 2.51316 21.3494 2.48606L20 3.96228ZM19.9806 6.30514L18.5681 4.88922L18.5664 4.89093L19.9806 6.30514ZM12 14.2857L12.6325 16.1831C12.927 16.0849 13.1947 15.9195 13.4142 15.6999L12 14.2857ZM8.57143 15.4286L6.67406 14.7961C6.4345 15.5148 6.62155 16.3071 7.15721 16.8428C7.69288 17.3784 8.48521 17.5655 9.20388 17.3259L8.57143 15.4286ZM9.71428 12L8.29414 10.5917C8.07751 10.8102 7.9142 11.0757 7.81692 11.3675L9.71428 12ZM17.6994 3.94743L16.2807 2.53774L16.2793 2.53917L17.6994 3.94743ZM19.8537 3.82857L21.2031 2.35235C21.1725 2.32438 21.141 2.29737 21.1087 2.27136L19.8537 3.82857ZM19.1621 4.90593C18.4001 4.10632 17.1341 4.07585 16.3345 4.83788C15.5349 5.59991 15.5044 6.86588 16.2665 7.66549L19.1621 4.90593ZM17.3556 8.80835C18.1176 9.60796 19.3836 9.63843 20.1832 8.8764C20.9828 8.11437 21.0133 6.8484 20.2513 6.04879L17.3556 8.80835ZM18.5642 5.35458C18.5036 5.29206 18.47 5.2082 18.4707 5.12111L22.4706 5.15428C22.4786 4.19035 22.1069 3.26201 21.4358 2.56998L18.5642 5.35458ZM18.4707 5.12111C18.4714 5.03402 18.5064 4.95072 18.5681 4.88922L21.3931 7.72106C22.0755 7.04026 22.4626 6.11821 22.4706 5.15428L18.4707 5.12111ZM18.5664 4.89093L10.5858 12.8715L13.4142 15.6999L21.3948 7.71935L18.5664 4.89093ZM11.3675 12.3883L7.93897 13.5312L9.20388 17.3259L12.6325 16.1831L11.3675 12.3883ZM10.4688 16.061L11.6117 12.6325L7.81692 11.3675L6.67406 14.7961L10.4688 16.061ZM11.1344 13.4083L19.1196 5.35568L16.2793 2.53917L8.29414 10.5917L11.1344 13.4083ZM19.1182 5.35711C19.0504 5.42527 18.9599 5.46592 18.8639 5.47121L18.6436 1.47729C17.7519 1.52648 16.9101 1.90428 16.2807 2.53774L19.1182 5.35711ZM18.8639 5.47121C18.768 5.47651 18.6735 5.44607 18.5987 5.38577L21.1087 2.27136C20.4135 1.71099 19.5352 1.42809 18.6436 1.47729L18.8639 5.47121ZM18.5044 5.30479L18.6506 5.43851L21.3494 2.48606L21.2031 2.35235L18.5044 5.30479ZM16.2665 7.66549L17.3556 8.80835L20.2513 6.04879L19.1621 4.90593L16.2665 7.66549Z" fill="white" mask="url(#path-3-outside-2_9_16)"/>
</svg>
