<svg width="24" height="20" viewBox="0 0 24 20" fill="none" xmlns="http://www.w3.org/2000/svg">
<path d="M12.795 0.830002C12.5841 0.619326 12.2981 0.500992 12 0.500992C11.7019 0.500992 11.4159 0.619326 11.205 0.830002L7.455 4.58C7.25628 4.79326 7.1481 5.07533 7.15324 5.36679C7.15838 5.65824 7.27645 5.93632 7.48257 6.14243C7.68869 6.34855 7.96676 6.46662 8.25822 6.47176C8.54967 6.47691 8.83174 6.36872 9.045 6.17L10.875 4.34V14.375C10.875 14.6734 10.9935 14.9595 11.2045 15.1705C11.4155 15.3815 11.7016 15.5 12 15.5C12.2984 15.5 12.5845 15.3815 12.7955 15.1705C13.0065 14.9595 13.125 14.6734 13.125 14.375V4.34L14.955 6.17C15.058 6.28053 15.1822 6.36919 15.3202 6.43067C15.4582 6.49216 15.6072 6.52522 15.7582 6.52789C15.9093 6.53055 16.0593 6.50277 16.1994 6.44619C16.3395 6.3896 16.4667 6.30539 16.5736 6.19856C16.6804 6.09173 16.7646 5.96448 16.8212 5.8244C16.8778 5.68432 16.9056 5.53427 16.9029 5.38322C16.9002 5.23216 16.8672 5.08319 16.8057 4.94519C16.7442 4.8072 16.6555 4.68299 16.545 4.58L12.795 0.830002ZM2.25 11.75C2.25 11.3522 2.40804 10.9706 2.68934 10.6893C2.97064 10.408 3.35218 10.25 3.75 10.25H7.875C8.17337 10.25 8.45952 10.1315 8.6705 9.9205C8.88147 9.70952 9 9.42337 9 9.125C9 8.82663 8.88147 8.54049 8.6705 8.32951C8.45952 8.11853 8.17337 8 7.875 8H3.75C2.75544 8 1.80161 8.39509 1.09835 9.09835C0.395088 9.80161 0 10.7554 0 11.75V16.25C0 17.2446 0.395088 18.1984 1.09835 18.9017C1.80161 19.6049 2.75544 20 3.75 20H20.25C21.2446 20 22.1984 19.6049 22.9017 18.9017C23.6049 18.1984 24 17.2446 24 16.25V11.75C24 10.7554 23.6049 9.80161 22.9017 9.09835C22.1984 8.39509 21.2446 8 20.25 8H16.125C15.8266 8 15.5405 8.11853 15.3295 8.32951C15.1185 8.54049 15 8.82663 15 9.125C15 9.42337 15.1185 9.70952 15.3295 9.9205C15.5405 10.1315 15.8266 10.25 16.125 10.25H20.25C20.6478 10.25 21.0294 10.408 21.3107 10.6893C21.592 10.9706 21.75 11.3522 21.75 11.75V16.25C21.75 16.6478 21.592 17.0294 21.3107 17.3107C21.0294 17.592 20.6478 17.75 20.25 17.75H3.75C3.35218 17.75 2.97064 17.592 2.68934 17.3107C2.40804 17.0294 2.25 16.6478 2.25 16.25V11.75Z" fill="white"/>
</svg>
